<mxfile host="65bd71144e">
    <diagram id="_t9M6VC8bUmH20V6Y02a" name="Page-1">
        <mxGraphModel dx="895" dy="666" grid="1" gridSize="10" guides="1" tooltips="1" connect="1" arrows="1" fold="1" page="1" pageScale="1" pageWidth="850" pageHeight="1100" math="0" shadow="0">
            <root>
                <mxCell id="0"/>
                <mxCell id="1" parent="0"/>
                <mxCell id="2" value="Header" style="rounded=0;whiteSpace=wrap;html=1;" vertex="1" parent="1">
                    <mxGeometry x="150" y="80" width="270" height="60" as="geometry"/>
                </mxCell>
                <mxCell id="6" value="" style="swimlane;startSize=80;fillColor=#1ba1e2;fontColor=#ffffff;strokeColor=#006EAF;" vertex="1" parent="1">
                    <mxGeometry x="50" y="210" width="820" height="570" as="geometry"/>
                </mxCell>
                <mxCell id="7" value="Pie Club" style="text;strokeColor=none;fillColor=none;html=1;fontSize=24;fontStyle=1;verticalAlign=middle;align=center;" vertex="1" parent="6">
                    <mxGeometry x="20" y="20" width="100" height="40" as="geometry"/>
                </mxCell>
            </root>
        </mxGraphModel>
    </diagram>
</mxfile>